<svg width="22" height="22" viewBox="0 0 22 22" fill="none" xmlns="http://www.w3.org/2000/svg">
<path d="M20.8296 20.0071L16.2853 15.4628C17.68 13.8723 18.4496 11.8599 18.4496 9.72479C18.4496 7.39421 17.5419 5.20335 15.8941 3.55552C14.2462 1.9077 12.0554 1 9.72479 1C7.39421 1 5.20335 1.9077 3.55552 3.55552C1.9077 5.20335 1 7.39421 1 9.72479C1 12.0554 1.9077 14.2462 3.55552 15.8941C5.20335 17.5419 7.39421 18.4496 9.72479 18.4496C11.8599 18.4496 13.8723 17.68 15.4628 16.2853L20.0071 20.8296C20.1207 20.9432 20.2695 21 20.4183 21C20.5672 21 20.716 20.9432 20.8296 20.8296C21.0568 20.6024 21.0568 20.2343 20.8296 20.0071ZM4.37802 15.0716C2.95001 13.6433 2.16331 11.7444 2.16331 9.72479C2.16331 7.7052 2.95001 5.8063 4.37802 4.37802C5.8063 2.95001 7.7052 2.16331 9.72479 2.16331C11.7444 2.16331 13.6433 2.95001 15.0716 4.37802C16.4996 5.8063 17.2863 7.7052 17.2863 9.72479C17.2863 11.7444 16.4996 13.6433 15.0716 15.0716C13.6433 16.4996 11.7444 17.2863 9.72479 17.2863C7.7052 17.2863 5.8063 16.4996 4.37802 15.0716Z" fill="black" stroke="black" stroke-width="0.6"/>
</svg>
