<svg width="23" height="20" viewBox="0 0 23 20" fill="none" xmlns="http://www.w3.org/2000/svg">
<path fill-rule="evenodd" clip-rule="evenodd" d="M10.6278 16.9772C11.4357 16.9772 12.0914 17.6544 12.0914 18.4886C12.0914 19.3228 11.4357 20 10.6278 20C9.81997 20 9.16424 19.3228 9.16424 18.4886C9.16424 17.6544 9.81997 16.9772 10.6278 16.9772ZM16.9937 16.9772C17.8016 16.9772 18.4573 17.6544 18.4573 18.4886C18.4573 19.3228 17.8016 20 16.9937 20C16.1859 20 15.5302 19.3228 15.5302 18.4886C15.5302 17.6544 16.1859 16.9772 16.9937 16.9772ZM0.909729 1.87892H2.97736C3.37982 1.87892 3.73353 2.15625 3.84124 2.55759C3.84124 2.55759 3.84197 2.55759 3.84197 2.55834C4.53845 5.1475 6.04351 10.7422 6.74291 13.3411C7.07114 14.5624 8.14826 15.4072 9.37457 15.4072H18.2113C19.4653 15.4072 20.5584 14.5256 20.8619 13.2689C21.4776 10.7279 22.7003 5.6766 22.7003 5.6766C22.768 5.39626 22.7068 5.09864 22.5343 4.87092C22.3619 4.64244 22.0977 4.50941 21.8175 4.50941H9.16424C8.66207 4.50941 8.25451 4.93029 8.25451 5.44887C8.25451 5.96746 8.66207 6.38834 9.16424 6.38834H20.6523L19.0963 12.815C18.9951 13.2344 18.6298 13.5282 18.2113 13.5282H9.37457C8.96483 13.5282 8.6053 13.2457 8.49541 12.8383C7.79601 10.2394 6.29096 4.64394 5.59447 2.05479C5.26915 0.841006 4.19785 0 2.97736 0H0.909729C0.407558 0 0 0.420878 0 0.939461C0 1.45804 0.407558 1.87892 0.909729 1.87892Z" fill="black"/>
</svg>



