<svg width="18" height="22" viewBox="0 0 18 22" fill="none" xmlns="http://www.w3.org/2000/svg">
<path d="M8.51398 10.6341C9.83752 10.6341 10.9835 10.1594 11.92 9.22279C12.8563 8.28636 13.3312 7.14058 13.3312 5.81688C13.3312 4.49364 12.8565 3.34771 11.9199 2.41098C10.9833 1.4747 9.83737 1 8.51398 1C7.19028 1 6.04449 1.4747 5.10806 2.41113C4.17163 3.34756 3.69678 4.49349 3.69678 5.81688C3.69678 7.14058 4.17163 8.28651 5.10806 9.22294C6.0448 10.1592 7.19073 10.6341 8.51398 10.6341ZM5.93692 3.23983C6.65546 2.5213 7.49835 2.17203 8.51398 2.17203C9.52945 2.17203 10.3725 2.5213 11.0912 3.23983C11.8097 3.95852 12.1591 4.80157 12.1591 5.81688C12.1591 6.83251 11.8097 7.6754 11.0912 8.39409C10.3725 9.11278 9.52945 9.46205 8.51398 9.46205C7.49866 9.46205 6.65576 9.11262 5.93692 8.39409C5.21823 7.67555 4.8688 6.83251 4.8688 5.81688C4.8688 4.80157 5.21823 3.95852 5.93692 3.23983Z" fill="black" stroke="black" stroke-width="0.5"/>
<path d="M16.9425 16.3791C16.9155 15.9894 16.8609 15.5643 16.7805 15.1154C16.6993 14.6631 16.5948 14.2356 16.4697 13.8448C16.3403 13.4409 16.1646 13.042 15.9472 12.6598C15.7218 12.2631 15.4569 11.9176 15.1597 11.6333C14.8489 11.3359 14.4683 11.0968 14.0283 10.9224C13.5897 10.7489 13.1037 10.661 12.5839 10.661C12.3797 10.661 12.1822 10.7448 11.8009 10.9931C11.5663 11.1461 11.2917 11.3231 10.9853 11.5189C10.7234 11.6858 10.3684 11.8422 9.93005 11.9838C9.50235 12.1222 9.06808 12.1924 8.63931 12.1924C8.21084 12.1924 7.77658 12.1222 7.34857 11.9838C6.91064 11.8424 6.55557 11.686 6.29404 11.519C5.99054 11.3251 5.71588 11.1481 5.47769 10.9929C5.09668 10.7447 4.89923 10.6609 4.69507 10.6609C4.17505 10.6609 3.68921 10.7489 3.25082 10.9226C2.81107 11.0967 2.43036 11.3358 2.11923 11.6335C1.82199 11.9179 1.5571 12.2632 1.33188 12.6598C1.11475 13.042 0.938965 13.4407 0.80957 13.8449C0.684601 14.2357 0.580078 14.6631 0.498901 15.1154C0.418335 15.5637 0.363861 15.9889 0.336853 16.3796C0.310303 16.7615 0.296875 17.159 0.296875 17.5606C0.296875 18.6046 0.628754 19.4498 1.2832 20.0731C1.92957 20.6882 2.78467 21.0001 3.82486 21.0001H13.455C14.4949 21.0001 15.35 20.6882 15.9965 20.0731C16.6511 19.4502 16.983 18.6048 16.983 17.5604C16.9828 17.1575 16.9692 16.76 16.9425 16.3791ZM15.1884 19.224C14.7613 19.6304 14.1943 19.828 13.4548 19.828H3.82486C3.08527 19.828 2.51825 19.6304 2.09131 19.2241C1.67245 18.8254 1.4689 18.2811 1.4689 17.5606C1.4689 17.1858 1.48126 16.8158 1.50598 16.4606C1.53009 16.1121 1.57938 15.7292 1.65247 15.3224C1.72464 14.9207 1.8165 14.5436 1.92575 14.2023C2.03058 13.875 2.17355 13.5509 2.35086 13.2387C2.52008 12.9412 2.71478 12.6859 2.92963 12.4802C3.13058 12.2878 3.38388 12.1303 3.68234 12.0122C3.95837 11.903 4.26858 11.8431 4.60535 11.8341C4.64639 11.856 4.71948 11.8976 4.83789 11.9748C5.07883 12.1318 5.35654 12.311 5.66354 12.507C6.00961 12.7277 6.45547 12.927 6.98816 13.0989C7.53274 13.275 8.08816 13.3644 8.63946 13.3644C9.19076 13.3644 9.74634 13.275 10.2906 13.0991C10.8238 12.9268 11.2695 12.7277 11.616 12.5067C11.9302 12.3059 12.2001 12.132 12.441 11.9748C12.5594 11.8978 12.6325 11.856 12.6736 11.8341C13.0105 11.8431 13.3207 11.903 13.5969 12.0122C13.8952 12.1303 14.1485 12.2879 14.3495 12.4802C14.5643 12.6857 14.759 12.941 14.9282 13.2389C15.1057 13.5509 15.2488 13.8751 15.3535 14.2021C15.4629 14.5439 15.5549 14.9208 15.6269 15.3223C15.6999 15.7298 15.7493 16.1128 15.7734 16.4607V16.461C15.7983 16.8149 15.8108 17.1848 15.8109 17.5606C15.8108 18.2813 15.6072 18.8254 15.1884 19.224Z" fill="black" stroke="black" stroke-width="0.5"/>
</svg>
